<?xml version="1.0" encoding="UTF-8"?>
<svg id="Ebene_2" xmlns="http://www.w3.org/2000/svg" viewBox="0 0 200 200">
  <defs>
    <style>
      .cls-1 {
        fill: none;
      }

      .cls-2 {
        fill: #fbb03b;
      }
    </style>
  </defs>
  <g id="Ebene_1-2" data-name="Ebene_1">
    <g>
      <g>
        <path class="cls-2" d="M146.38,176.84c-1.01,0-1.96-.33-2.85-.97l-44.2-32.11-44.2,32.11c-.88.64-1.84.97-2.85.97-1.55,0-3.09-.8-4.03-2.1-.91-1.25-1.14-2.79-.64-4.33l16.88-51.96-44.2-32.11c-2.12-1.54-2.31-3.83-1.78-5.46.53-1.63,2.03-3.38,4.65-3.38h54.63l16.88-51.96c.81-2.49,2.93-3.38,4.65-3.38s3.84.89,4.65,3.38l16.88,51.96h54.63c2.62,0,4.12,1.74,4.65,3.38.53,1.63.34,3.92-1.78,5.46l-44.2,32.11,16.88,51.96c.5,1.54.27,3.07-.64,4.33-.94,1.3-2.49,2.1-4.03,2.1Z"/>
        <path d="M99.33,24.66c.52,0,1.79.16,2.27,1.65l16.32,50.23,1.12,3.45h56.45c1.56,0,2.11,1.15,2.27,1.65.16.5.4,1.75-.87,2.67l-42.73,31.05-2.94,2.14,1.12,3.45,16.32,50.23c.26.79.16,1.47-.28,2.09-.47.65-1.26,1.07-2.01,1.07-.47,0-.92-.16-1.38-.49l-42.73-31.05-2.94-2.14-2.94,2.14-42.73,31.05c-.45.33-.9.49-1.38.49-.75,0-1.54-.42-2.01-1.07-.45-.61-.54-1.3-.28-2.09l16.32-50.23,1.12-3.45-2.94-2.14-42.73-31.05c-1.27-.92-1.03-2.17-.87-2.67.16-.5.7-1.65,2.27-1.65h56.45l1.12-3.45,16.32-50.23c.48-1.49,1.75-1.65,2.27-1.65M99.33,19.66c-2.96,0-5.92,1.7-7.02,5.1l-16.32,50.23H23.17c-7.15,0-10.13,9.16-4.34,13.36l42.73,31.05-16.32,50.23c-1.68,5.18,2.43,9.7,7.05,9.7,1.44,0,2.94-.44,4.32-1.44l42.73-31.05,42.73,31.05c1.38,1,2.87,1.44,4.32,1.44,4.62,0,8.73-4.52,7.05-9.7l-16.32-50.23,42.73-31.05c5.79-4.21,2.81-13.36-4.34-13.36h-52.82l-16.32-50.23c-1.11-3.4-4.06-5.1-7.02-5.1h0Z"/>
      </g>
      <rect class="cls-1" width="200" height="200"/>
    </g>
  </g>
</svg>