<?xml version="1.0" encoding="UTF-8"?>
<svg id="Ebene_2" xmlns="http://www.w3.org/2000/svg" viewBox="0 0 200 200">
  <defs>
    <style>
      .cls-1 {
        fill: #fff;
      }

      .cls-2 {
        fill: none;
      }
    </style>
  </defs>
  <g id="Ebene_1-2" data-name="Ebene_1">
    <g>
      <g>
        <path class="cls-1" d="M121,133.92c-31.94,0-57.92-25.98-57.92-57.92s25.98-57.92,57.92-57.92,57.92,25.98,57.92,57.92-25.98,57.92-57.92,57.92Z"/>
        <path d="M121,21.67c29.96,0,54.33,24.37,54.33,54.33s-24.37,54.33-54.33,54.33-54.33-24.37-54.33-54.33,24.37-54.33,54.33-54.33M121,14.5c-33.97,0-61.5,27.53-61.5,61.5s27.53,61.5,61.5,61.5,61.5-27.53,61.5-61.5-27.53-61.5-61.5-61.5h0Z"/>
      </g>
      <path d="M80.07,122.07c1.4-1.4,1.4-3.67,0-5.07s-3.67-1.4-5.07,0L7.5,184.5c-1.4,1.4-1.4,3.67,0,5.07,1.4,1.4,3.67,1.4,5.07,0l67.5-67.5"/>
      <g>
        <path d="M126.04,46.25c0-1.98-1.6-3.58-3.58-3.58s-3.58,1.6-3.58,3.58v34c0,1.98,1.6,3.58,3.58,3.58s3.58-1.6,3.58-3.58v-34"/>
        <path d="M105.5,60.34c-1.98,0-3.58,1.6-3.58,3.58s1.6,3.58,3.58,3.58h34c1.98,0,3.58-1.6,3.58-3.58s-1.6-3.58-3.58-3.58h-34"/>
      </g>
      <path d="M105.5,93.34c-1.98,0-3.58,1.6-3.58,3.58s1.6,3.58,3.58,3.58h34c1.98,0,3.58-1.6,3.58-3.58s-1.6-3.58-3.58-3.58h-34"/>
      <rect class="cls-2" width="200" height="200"/>
    </g>
  </g>
</svg>