<?xml version="1.0" standalone="no"?>
<svg xmlns="http://www.w3.org/2000/svg" xmlns:xlink="http://www.w3.org/1999/xlink" width="190pt" height="399pt" viewBox="0.00 0.00 189.66 399.20">
<g id="graph0" class="graph" transform="translate(13.826190207064457,338.6132200403918) scale(0.7116931858167703)" data-name="">
<polygon fill="white" stroke="none" points="-4,4 -4,-395.2 185.66,-395.2 185.66,4 -4,4"/>
<!-- A -->
<g id="node1" class="node" pointer-events="visible" data-name="A">

<ellipse fill="none" stroke="black" cx="145" cy="-373.2" rx="27" ry="18"/>
<text text-anchor="middle" x="145" y="-369" font-family="Times,serif" font-size="14.00">A</text>
</g>
<!-- B -->
<g id="node2" class="node" pointer-events="visible" data-name="B">

<ellipse fill="none" stroke="black" cx="76" cy="-284.4" rx="27" ry="18"/>
<text text-anchor="middle" x="76" y="-280.2" font-family="Times,serif" font-size="14.00">B</text>
</g>
<!-- A&#45;&gt;B -->
<g id="edge1" class="edge" data-name="A-&gt;B">

<path fill="none" stroke="black" d="M130.54,-357.62C124.69,-351.49 117.99,-344.17 112.34,-337.2 105.5,-328.77 98.53,-319.13 92.54,-310.47"/>
<polygon fill="black" stroke="black" points="95.63,-308.78 87.12,-302.48 89.84,-312.72 95.63,-308.78"/>
<text text-anchor="middle" x="121.33" y="-324.6" font-family="Times,serif" font-size="14.00">-97</text>
</g>
<!-- C -->
<g id="node3" class="node" pointer-events="visible" data-name="C">

<ellipse fill="none" stroke="black" cx="128" cy="-195.6" rx="27" ry="18"/>
<text text-anchor="middle" x="128" y="-191.4" font-family="Times,serif" font-size="14.00">C</text>
</g>
<!-- A&#45;&gt;C -->
<g id="edge2" class="edge" data-name="A-&gt;C">

<path fill="none" stroke="black" d="M143.34,-355.04C140.42,-324.88 134.34,-262.07 130.77,-225.24"/>
<polygon fill="black" stroke="black" points="134.26,-224.95 129.81,-215.33 127.29,-225.62 134.26,-224.95"/>
<text text-anchor="middle" x="147.33" y="-280.2" font-family="Times,serif" font-size="14.00">-92</text>
</g>
<!-- B&#45;&gt;C -->
<g id="edge3" class="edge" data-name="B-&gt;C">

<path fill="none" stroke="black" d="M69.32,-266.52C66.22,-255.86 64.39,-242.16 70.34,-231.6 75.65,-222.16 84.66,-214.97 93.99,-209.64"/>
<polygon fill="black" stroke="black" points="95.38,-212.86 102.74,-205.24 92.23,-206.6 95.38,-212.86"/>
<text text-anchor="middle" x="80.33" y="-235.8" font-family="Times,serif" font-size="14.00">-70</text>
</g>
<!-- D -->
<g id="node4" class="node" pointer-events="visible" data-name="D">

<ellipse fill="none" stroke="black" cx="27" cy="-195.6" rx="27" ry="18"/>
<text text-anchor="middle" x="27" y="-191.4" font-family="Times,serif" font-size="14.00">D</text>
</g>
<!-- B&#45;&gt;D -->
<g id="edge4" class="edge" data-name="B-&gt;D">

<path fill="none" stroke="black" d="M54.27,-273.21C44.51,-267.41 33.95,-259.14 28.34,-248.4 24.69,-241.41 23.38,-233.14 23.24,-225.27"/>
<polygon fill="black" stroke="black" points="26.73,-225.54 23.7,-215.39 19.73,-225.22 26.73,-225.54"/>
<text text-anchor="middle" x="38.33" y="-235.8" font-family="Times,serif" font-size="14.00">-50</text>
</g>
<!-- C&#45;&gt;A -->
<g id="edge5" class="edge" data-name="C-&gt;A">

<path fill="none" stroke="black" d="M138.2,-212.46C146.31,-226.13 156.94,-246.71 161,-266.4 166.42,-292.65 160.65,-322.92 154.58,-344.34"/>
<polygon fill="black" stroke="black" points="151.26,-343.21 151.69,-353.8 157.96,-345.26 151.26,-343.21"/>
<text text-anchor="middle" x="172.33" y="-280.2" font-family="Times,serif" font-size="14.00">-90</text>
</g>
<!-- C&#45;&gt;B -->
<g id="edge6" class="edge" data-name="C-&gt;B">

<path fill="none" stroke="black" d="M118.35,-212.71C110.74,-225.41 99.99,-243.36 91.23,-257.99"/>
<polygon fill="black" stroke="black" points="88.45,-255.8 86.32,-266.18 94.46,-259.4 88.45,-255.8"/>
<text text-anchor="middle" x="115.33" y="-235.8" font-family="Times,serif" font-size="14.00">-69</text>
</g>
<!-- E -->
<g id="node5" class="node" pointer-events="visible" data-name="E">

<ellipse fill="none" stroke="black" cx="27" cy="-106.8" rx="27" ry="18"/>
<text text-anchor="middle" x="27" y="-102.6" font-family="Times,serif" font-size="14.00">E</text>
</g>
<!-- D&#45;&gt;E -->
<g id="edge7" class="edge" data-name="D-&gt;E">

<path fill="none" stroke="black" d="M15.96,-178.96C12.49,-173.16 9.1,-166.34 7.34,-159.6 5.45,-152.38 5.45,-150.02 7.34,-142.8 8.16,-139.64 9.35,-136.46 10.73,-133.38"/>
<polygon fill="black" stroke="black" points="13.7,-135.26 15.26,-124.78 7.5,-132 13.7,-135.26"/>
<text text-anchor="middle" x="17.33" y="-147" font-family="Times,serif" font-size="14.00">-50</text>
</g>
<!-- E&#45;&gt;D -->
<g id="edge8" class="edge" data-name="E-&gt;D">

<path fill="none" stroke="black" d="M27,-125.21C27,-136.96 27,-152.74 27,-166.28"/>
<polygon fill="black" stroke="black" points="23.5,-165.94 27,-175.94 30.5,-165.94 23.5,-165.94"/>
<text text-anchor="middle" x="36.33" y="-147" font-family="Times,serif" font-size="14.00">-50</text>
</g>
<!-- F -->
<g id="node6" class="node" pointer-events="visible" data-name="F">

<ellipse fill="none" stroke="black" cx="27" cy="-18" rx="27" ry="18"/>
<text text-anchor="middle" x="27" y="-13.8" font-family="Times,serif" font-size="14.00">F</text>
</g>
<!-- E&#45;&gt;F -->
<g id="edge9" class="edge" data-name="E-&gt;F">

<path fill="none" stroke="black" d="M27,-88.65C27,-76.96 27,-61.19 27,-47.62"/>
<polygon fill="black" stroke="black" points="30.5,-47.92 27,-37.92 23.5,-47.92 30.5,-47.92"/>
<text text-anchor="middle" x="36.33" y="-58.2" font-family="Times,serif" font-size="14.00">-52</text>
</g>
</g>
</svg>