<?xml version="1.0" encoding="UTF-8"?>
<svg id="Ebene_1" data-name="Ebene 1" xmlns="http://www.w3.org/2000/svg" viewBox="0 0 1474.51 953.7">
  <defs>
    <style>
      .cls-1 {
        letter-spacing: 0em;
      }

      .cls-2 {
        letter-spacing: 0em;
      }

      .cls-3 {
        letter-spacing: .03em;
      }

      .cls-4 {
        letter-spacing: -.01em;
      }

      .cls-5 {
        letter-spacing: 0em;
      }

      .cls-6 {
        font-size: 17.47px;
      }

      .cls-6, .cls-7 {
        fill: #fff;
        font-family: MyriadPro-Regular, 'Myriad Pro';
      }

      .cls-7 {
        font-size: 34.93px;
      }

      .cls-8, .cls-9, .cls-10, .cls-11, .cls-12, .cls-13, .cls-14 {
        stroke-miterlimit: 10;
      }

      .cls-8, .cls-9, .cls-10, .cls-11, .cls-12, .cls-14 {
        stroke: #000;
      }

      .cls-8, .cls-11, .cls-13 {
        fill: #b4cce0;
      }

      .cls-8, .cls-13 {
        stroke-width: 1.47px;
      }

      .cls-9 {
        stroke-width: 1.01px;
      }

      .cls-9, .cls-10, .cls-12 {
        fill: none;
      }

      .cls-10 {
        stroke-width: 1.01px;
      }

      .cls-15 {
        letter-spacing: -.02em;
      }

      .cls-16 {
        letter-spacing: 0em;
      }

      .cls-17 {
        letter-spacing: 0em;
      }

      .cls-18 {
        letter-spacing: 0em;
      }

      .cls-19 {
        fill: #001f4b;
      }

      .cls-19, .cls-20, .cls-21, .cls-22 {
        stroke-width: 0px;
      }

      .cls-20 {
        fill: #000;
      }

      .cls-11 {
        stroke-width: 1.17px;
      }

      .cls-23 {
        letter-spacing: 0em;
      }

      .cls-21 {
        fill: #03396c;
      }

      .cls-24 {
        letter-spacing: -.02em;
      }

      .cls-25 {
        letter-spacing: -.02em;
      }

      .cls-26 {
        letter-spacing: 0em;
      }

      .cls-27 {
        letter-spacing: 0em;
      }

      .cls-28 {
        letter-spacing: 0em;
      }

      .cls-29 {
        letter-spacing: -.04em;
      }

      .cls-12 {
        stroke-width: 1.93px;
      }

      .cls-30 {
        letter-spacing: 0em;
      }

      .cls-31 {
        letter-spacing: 0em;
      }

      .cls-32 {
        letter-spacing: 0em;
      }

      .cls-13 {
        stroke: #2a3241;
      }

      .cls-33 {
        letter-spacing: -.03em;
      }

      .cls-14 {
        stroke-width: .7px;
      }

      .cls-14, .cls-22 {
        fill: #005b95;
      }

      .cls-34 {
        letter-spacing: 0em;
      }
    </style>
  </defs>
  <ellipse class="cls-8" cx="131.19" cy="617.15" rx="130.46" ry="210.29"/>
  <ellipse class="cls-8" cx="966.33" cy="133.13" rx="207.22" ry="132.39"/>
  <ellipse class="cls-8" cx="958.27" cy="455.15" rx="207.22" ry="132.39"/>
  <ellipse class="cls-13" cx="958.27" cy="773.74" rx="207.22" ry="132.39"/>
  <text class="cls-7" transform="translate(855.21 141.2) scale(.99 1)"><tspan x="0" y="0">D</tspan><tspan class="cls-26" x="23.26" y="0">a</tspan><tspan x="39.96" y="0">ta </tspan><tspan class="cls-24" x="75.77" y="0">P</tspan><tspan class="cls-31" x="93.79" y="0">r</tspan><tspan x="104.87" y="0">o</tspan><tspan class="cls-5" x="124.05" y="0">c</tspan><tspan class="cls-18" x="139.49" y="0">essing </tspan></text>
  <g>
    <ellipse class="cls-11" cx="509.56" cy="133.89" rx="101.83" ry="93.29"/>
    <text class="cls-7" transform="translate(437.82 144.4) scale(.99 1)"><tspan class="cls-25" x="0" y="0">P</tspan><tspan class="cls-31" x="18.03" y="0">r</tspan><tspan x="29.1" y="0">o</tspan><tspan class="cls-5" x="48.28" y="0">t</tspan><tspan class="cls-34" x="59.63" y="0">o</tspan><tspan class="cls-28" x="78.81" y="0">t</tspan><tspan x="90.69" y="0">ype</tspan></text>
  </g>
  <text class="cls-7" transform="translate(880.36 387.89) scale(.99 1)"><tspan x="0" y="0">D</tspan><tspan class="cls-26" x="23.26" y="0">a</tspan><tspan x="39.96" y="0">tabases</tspan></text>
  <g>
    <ellipse class="cls-11" cx="1372.09" cy="782.54" rx="101.83" ry="93.29"/>
    <text class="cls-7" transform="translate(1311.7 794.09) scale(.99 1)"><tspan class="cls-33" x="0" y="0">W</tspan><tspan class="cls-18" x="28.4" y="0">eb</tspan><tspan class="cls-2" x="65.78" y="0">A</tspan><tspan x="87.05" y="0">pp</tspan></text>
  </g>
  <text class="cls-7" transform="translate(912.5 692.06) scale(.99 1)"><tspan class="cls-27" x="0" y="0">S</tspan><tspan x="17.43" y="0">e</tspan><tspan class="cls-3" x="34.93" y="0">r</tspan><tspan class="cls-4" x="47.23" y="0">v</tspan><tspan class="cls-18" x="63.68" y="0">er</tspan></text>
  <text class="cls-7" transform="translate(101.57 468.63) scale(.99 1)"><tspan class="cls-33" x="0" y="0">W</tspan><tspan x="28.4" y="0">eb</tspan></text>
  <ellipse class="cls-19" cx="844.28" cy="454.91" rx="63.11" ry="38.81"/>
  <ellipse class="cls-19" cx="1067.07" cy="454.91" rx="63.11" ry="38.81"/>
  <ellipse class="cls-19" cx="958.06" cy="532.54" rx="63.11" ry="38.81"/>
  <ellipse class="cls-21" cx="844.28" cy="792.6" rx="63.11" ry="38.81"/>
  <ellipse class="cls-21" cx="1067.07" cy="792.6" rx="63.11" ry="38.81"/>
  <ellipse class="cls-22" cx="131.92" cy="534.48" rx="63.11" ry="38.81"/>
  <ellipse class="cls-22" cx="131.92" cy="638.31" rx="63.11" ry="38.81"/>
  <ellipse class="cls-22" cx="130.96" cy="741.17" rx="63.11" ry="38.81"/>
  <text class="cls-6" transform="translate(829.92 462.2) scale(.99 1)"><tspan x="0" y="0">user</tspan></text>
  <text class="cls-6" transform="translate(1044.82 463.07) scale(.99 1)"><tspan x="0" y="0">sensor</tspan></text>
  <text class="cls-6" transform="translate(910.48 541.06) scale(.99 1)"><tspan class="cls-17" x="0" y="0">c</tspan><tspan x="7.72" y="0">onfigu</tspan><tspan class="cls-32" x="55.53" y="0">r</tspan><tspan class="cls-23" x="61.15" y="0">a</tspan><tspan x="69.5" y="0">tion</tspan></text>
  <text class="cls-6" transform="translate(1050.04 799.86) scale(.99 1)"><tspan x="0" y="0">REST</tspan></text>
  <text class="cls-6" transform="translate(792.49 800.09) scale(.99 1)"><tspan x="0" y="0">authe</tspan><tspan class="cls-23" x="42.27" y="0">n</tspan><tspan x="51.89" y="0">tic</tspan><tspan class="cls-23" x="69.59" y="0">a</tspan><tspan x="77.93" y="0">tion</tspan></text>
  <text class="cls-6" transform="translate(84.04 538.57) scale(.99 1)"><tspan x="0" y="0">ap</tspan><tspan class="cls-15" x="18.36" y="0">p</tspan><tspan x="27.88" y="0">.</tspan><tspan class="cls-5" x="31.49" y="0">c</tspan><tspan class="cls-18" x="39.21" y="0">o</tspan><tspan class="cls-26" x="48.8" y="0">n</tspan><tspan x="58.42" y="0">trude</tspan></text>
  <text class="cls-6" transform="translate(82.87 643.71) scale(.99 1)"><tspan class="cls-31" x="0" y="0">r</tspan><tspan x="5.54" y="0">es</tspan><tspan class="cls-16" x="21.2" y="0">t</tspan><tspan x="26.93" y="0">.</tspan><tspan class="cls-5" x="30.55" y="0">c</tspan><tspan class="cls-18" x="38.27" y="0">o</tspan><tspan class="cls-26" x="47.86" y="0">n</tspan><tspan x="57.48" y="0">trude</tspan></text>
  <text class="cls-6" transform="translate(81.91 749.22) scale(.99 1)"><tspan x="0" y="0">auth.</tspan><tspan class="cls-5" x="37.13" y="0">c</tspan><tspan x="44.85" y="0">o</tspan><tspan class="cls-26" x="54.44" y="0">n</tspan><tspan x="64.07" y="0">trude</tspan></text>
  <rect class="cls-14" x="390.56" y="526.23" width="217.05" height="220.35"/>
  <g>
    <line class="cls-9" x1="183.56" y1="512.17" x2="442.52" y2="211.61"/>
    <path class="cls-20" d="M446.5,206.98c-1.07,2.87-2.02,6.76-2,9.69l-2.51-4.46-4.78-1.82c2.9-.42,6.6-1.93,9.28-3.41Z"/>
  </g>
  <g>
    <line class="cls-10" x1="611.39" y1="133.89" x2="753" y2="133.16"/>
    <path class="cls-20" d="M759.11,133.13c-2.87,1.08-6.42,2.92-8.62,4.85l1.71-4.82-1.76-4.8c2.22,1.91,5.79,3.71,8.67,4.76Z"/>
  </g>
  <g>
    <line class="cls-10" x1="1067.07" y1="248.84" x2="1067.07" y2="409.99"/>
    <path class="cls-20" d="M1067.07,416.1c-1.07-2.87-2.88-6.44-4.81-8.64l4.81,1.74,4.81-1.74c-1.93,2.21-3.74,5.77-4.81,8.64Z"/>
  </g>
  <g>
    <line class="cls-10" x1="1067.07" y1="499.83" x2="1067.07" y2="747.68"/>
    <path class="cls-20" d="M1067.07,493.73c-1.07,2.87-2.88,6.44-4.81,8.64l4.81-1.74,4.81,1.74c-1.93-2.21-3.74-5.77-4.81-8.64Z"/>
    <path class="cls-20" d="M1067.07,753.78c-1.07-2.87-2.88-6.44-4.81-8.64l4.81,1.74,4.81-1.74c-1.93,2.21-3.74,5.77-4.81,8.64Z"/>
  </g>
  <g>
    <line class="cls-10" x1="844.28" y1="499.83" x2="844.28" y2="747.68"/>
    <path class="cls-20" d="M844.28,493.73c-1.07,2.87-2.88,6.44-4.81,8.64l4.81-1.74,4.81,1.74c-1.93-2.21-3.74-5.77-4.81-8.64Z"/>
    <path class="cls-20" d="M844.28,753.78c-1.07-2.87-2.88-6.44-4.81-8.64l4.81,1.74,4.81-1.74c-1.93,2.21-3.74,5.77-4.81,8.64Z"/>
  </g>
  <g>
    <line class="cls-10" x1="960.83" y1="576.8" x2="1048.59" y2="749.56"/>
    <path class="cls-20" d="M958.06,571.35c.35,3.04.34,7.04-.37,9.89l3.5-3.73,5.08-.63c-2.72-1.1-5.95-3.45-8.2-5.53Z"/>
    <path class="cls-20" d="M1051.35,755c-2.25-2.08-5.49-4.43-8.2-5.53l5.08-.63,3.5-3.73c-.72,2.84-.72,6.84-.37,9.88Z"/>
  </g>
  <g>
    <line class="cls-10" x1="1136.28" y1="792.66" x2="1264.93" y2="794.02"/>
    <path class="cls-20" d="M1130.18,792.6c2.86,1.1,6.4,2.95,8.59,4.9l-1.69-4.83,1.79-4.79c-2.23,1.9-5.81,3.68-8.69,4.72Z"/>
    <path class="cls-20" d="M1271.03,794.09c-2.88,1.04-6.47,2.82-8.69,4.72l1.79-4.79-1.69-4.83c2.19,1.95,5.73,3.8,8.59,4.9Z"/>
  </g>
  <g>
    <line class="cls-10" x1="913.49" y1="792.6" x2="996.82" y2="792.6"/>
    <path class="cls-20" d="M907.38,792.6c2.87,1.07,6.44,2.88,8.64,4.81l-1.74-4.81,1.74-4.81c-2.21,1.93-5.77,3.74-8.64,4.81Z"/>
    <polygon class="cls-20" points="1003.96 792.6 993.9 796.71 996.28 792.6 993.9 788.49 1003.96 792.6"/>
  </g>
  <g>
    <line class="cls-12" x1="195.02" y1="638.31" x2="378.94" y2="638.31"/>
    <path class="cls-20" d="M390.56,638.31c-5.47,2.03-12.26,5.49-16.47,9.16l3.31-9.16-3.31-9.16c4.21,3.67,11,7.13,16.47,9.16Z"/>
  </g>
  <polyline class="cls-12" points="194.07 741.17 315.03 741.17 315.03 638.31 315.03 534.48 195.02 534.48"/>
  <g>
    <polyline class="cls-12" points="1372.09 875.83 1372.09 952.74 685.25 952.74 685.25 637.82 619.25 638.24"/>
    <path class="cls-20" d="M607.62,638.31c5.46-2.06,12.22-5.57,16.41-9.26l-3.26,9.18,3.37,9.14c-4.23-3.64-11.04-7.06-16.52-9.06Z"/>
  </g>
  <line class="cls-12" x1="844.28" y1="831.41" x2="844.28" y2="952.74"/>
  <line class="cls-12" x1="1067.07" y1="831.41" x2="1067.07" y2="952.74"/>
  <text class="cls-7" transform="translate(455.1 651.47) scale(.99 1)"><tspan class="cls-29" x="0" y="0">T</tspan><tspan class="cls-30" x="15.79" y="0">r</tspan><tspan class="cls-1" x="27.04" y="0">aefik</tspan></text>
</svg>