<?xml version="1.0" encoding="UTF-8"?>
<svg id="Ebene_1" xmlns="http://www.w3.org/2000/svg" viewBox="0 0 1920 1080">
  <defs>
    <style>
      .cls-1 {
        letter-spacing: 0em;
      }

      .cls-2, .cls-3 {
        fill: #005b95;
      }

      .cls-4 {
        stroke-width: 1.17px;
      }

      .cls-4, .cls-3, .cls-5, .cls-6, .cls-7, .cls-8, .cls-9, .cls-10, .cls-11, .cls-12 {
        stroke-miterlimit: 10;
      }

      .cls-4, .cls-3, .cls-5, .cls-6, .cls-7, .cls-9, .cls-12 {
        stroke: #000;
      }

      .cls-4, .cls-8, .cls-11, .cls-12 {
        fill: #b4cce0;
      }

      .cls-3 {
        stroke-width: .7px;
      }

      .cls-13 {
        letter-spacing: 0em;
      }

      .cls-5 {
        stroke-width: 1.93px;
      }

      .cls-5, .cls-6, .cls-7, .cls-9, .cls-10 {
        fill: none;
      }

      .cls-14 {
        letter-spacing: 0em;
      }

      .cls-15 {
        letter-spacing: 0em;
      }

      .cls-16 {
        letter-spacing: 0em;
      }

      .cls-17 {
        fill: #03396c;
      }

      .cls-7 {
        stroke-width: 1.89px;
      }

      .cls-18 {
        letter-spacing: 0em;
      }

      .cls-19 {
        letter-spacing: -.03em;
      }

      .cls-20 {
        font-size: 18px;
      }

      .cls-20, .cls-21, .cls-22, .cls-23 {
        fill: #fff;
        font-family: MyriadPro-Regular, 'Myriad Pro';
      }

      .cls-8, .cls-9 {
        stroke-width: 2px;
      }

      .cls-8, .cls-10, .cls-11 {
        stroke: #2a3241;
      }

      .cls-24 {
        letter-spacing: 0em;
      }

      .cls-25 {
        letter-spacing: 0em;
      }

      .cls-21 {
        font-size: 34.93px;
      }

      .cls-26 {
        letter-spacing: 0em;
      }

      .cls-27 {
        letter-spacing: -.04em;
      }

      .cls-28 {
        letter-spacing: -.01em;
      }

      .cls-22 {
        font-size: 17.47px;
      }

      .cls-29 {
        letter-spacing: 0em;
      }

      .cls-30 {
        letter-spacing: -.01em;
      }

      .cls-31 {
        letter-spacing: 0em;
      }

      .cls-32 {
        letter-spacing: 0em;
      }

      .cls-33 {
        fill: #001f4b;
      }

      .cls-34 {
        letter-spacing: -.02em;
      }

      .cls-35 {
        letter-spacing: .01em;
      }

      .cls-36 {
        letter-spacing: .03em;
      }

      .cls-37 {
        letter-spacing: 0em;
      }

      .cls-38 {
        letter-spacing: 0em;
      }

      .cls-39 {
        letter-spacing: -.01em;
      }

      .cls-40 {
        letter-spacing: 0em;
      }

      .cls-41 {
        letter-spacing: 0em;
      }

      .cls-42 {
        letter-spacing: -.02em;
      }

      .cls-43 {
        letter-spacing: 0em;
      }

      .cls-44 {
        letter-spacing: 0em;
      }

      .cls-23 {
        font-size: 12px;
      }

      .cls-45 {
        fill: #01002e;
      }

      .cls-46 {
        letter-spacing: 0em;
      }

      .cls-11 {
        stroke-width: 2.09px;
      }

      .cls-47 {
        letter-spacing: .04em;
      }

      .cls-48 {
        letter-spacing: 0em;
      }

      .cls-49 {
        fill: #2a3241;
      }

      .cls-50 {
        letter-spacing: 0em;
      }

      .cls-51 {
        letter-spacing: -.04em;
      }

      .cls-52 {
        letter-spacing: -.07em;
      }

      .cls-53 {
        letter-spacing: -.03em;
      }

      .cls-54 {
        letter-spacing: 0em;
      }

      .cls-55 {
        letter-spacing: -.01em;
      }

      .cls-56 {
        letter-spacing: 0em;
      }

      .cls-57 {
        letter-spacing: -.01em;
      }

      .cls-12 {
        stroke-width: 1.55px;
      }

      .cls-58 {
        letter-spacing: 0em;
      }

      .cls-59 {
        letter-spacing: 0em;
      }
    </style>
  </defs>
  <ellipse class="cls-8" cx="1287.79" cy="282.86" rx="240.96" ry="153.94"/>
  <ellipse class="cls-12" cx="440.61" cy="750.41" rx="145.11" ry="210.29"/>
  <ellipse class="cls-8" cx="1287.79" cy="774.7" rx="240.96" ry="153.94"/>
  <g>
    <ellipse class="cls-4" cx="823.64" cy="272.16" rx="101.83" ry="93.29"/>
    <text class="cls-21" transform="translate(751.9 282.67) scale(.99 1)"><tspan class="cls-42" x="0" y="0">P</tspan><tspan class="cls-29" x="18.03" y="0">r</tspan><tspan x="29.1" y="0">o</tspan><tspan class="cls-18" x="48.28" y="0">t</tspan><tspan class="cls-44" x="59.63" y="0">o</tspan><tspan class="cls-24" x="78.81" y="0">t</tspan><tspan x="90.69" y="0">ype</tspan></text>
  </g>
  <text class="cls-21" transform="translate(1211.43 195.16) scale(.99 1)"><tspan x="0" y="0">D</tspan><tspan class="cls-16" x="23.26" y="0">a</tspan><tspan x="39.96" y="0">tabases</tspan></text>
  <g>
    <ellipse class="cls-4" cx="1767.17" cy="740.81" rx="101.83" ry="93.29"/>
    <text class="cls-21" transform="translate(1706.77 752.35) scale(.99 1)"><tspan class="cls-19" x="0" y="0">W</tspan><tspan class="cls-43" x="28.4" y="0">eb</tspan><tspan class="cls-54" x="65.78" y="0">A</tspan><tspan x="87.05" y="0">pp</tspan></text>
  </g>
  <text class="cls-21" transform="translate(1245.57 673.32) scale(.99 1)"><tspan class="cls-31" x="0" y="0">S</tspan><tspan x="17.43" y="0">e</tspan><tspan class="cls-36" x="34.93" y="0">r</tspan><tspan class="cls-28" x="47.23" y="0">v</tspan><tspan class="cls-43" x="63.68" y="0">er</tspan></text>
  <text class="cls-21" transform="translate(409.64 601.89) scale(.99 1)"><tspan class="cls-19" x="0" y="0">W</tspan><tspan x="28.4" y="0">eb</tspan></text>
  <ellipse class="cls-17" cx="1366.35" cy="850.86" rx="63.11" ry="38.81"/>
  <ellipse class="cls-17" cx="1366.14" cy="740.86" rx="63.11" ry="38.81"/>
  <ellipse class="cls-2" cx="444.74" cy="674.44" rx="80.56" ry="46.03"/>
  <g>
    <ellipse class="cls-33" cx="1367.35" cy="264.18" rx="63.11" ry="38.81"/>
    <text class="cls-20" transform="translate(1352 271.18) scale(.99 1)"><tspan x="0" y="0">user</tspan></text>
  </g>
  <g>
    <ellipse class="cls-33" cx="1207.14" cy="360.18" rx="63.11" ry="38.81"/>
    <text class="cls-22" transform="translate(1184.89 365.33) scale(.99 1)"><tspan x="0" y="0">sensor</tspan></text>
  </g>
  <g>
    <ellipse class="cls-33" cx="1367.14" cy="360.8" rx="63.11" ry="38.81"/>
    <text class="cls-22" transform="translate(1330.55 366.32) scale(.99 1)"><tspan class="cls-26" x="0" y="0">c</tspan><tspan x="7.72" y="0">o</tspan><tspan class="cls-48" x="17.31" y="0">n</tspan><tspan class="cls-37" x="26.93" y="0">tainer</tspan></text>
  </g>
  <text class="cls-22" transform="translate(1348.12 748.12) scale(.99 1)"><tspan x="0" y="0">REST</tspan></text>
  <text class="cls-22" transform="translate(1314.56 858.36) scale(.99 1)"><tspan x="0" y="0">authe</tspan><tspan class="cls-41" x="42.27" y="0">n</tspan><tspan x="51.89" y="0">tic</tspan><tspan class="cls-41" x="69.59" y="0">a</tspan><tspan x="77.93" y="0">tion</tspan></text>
  <text class="cls-22" transform="translate(378.42 681.31) scale(.99 1)"><tspan class="cls-35" x="0" y="0">ww</tspan><tspan class="cls-27" x="26.13" y="0">w</tspan><tspan x="38.3" y="0">.</tspan><tspan class="cls-18" x="41.92" y="0">c</tspan><tspan x="49.64" y="0">o</tspan><tspan class="cls-16" x="59.23" y="0">n</tspan><tspan x="68.85" y="0">trud</tspan><tspan class="cls-39" x="99.82" y="0">e</tspan><tspan x="108.36" y="0">.eu</tspan></text>
  <rect class="cls-3" x="714.64" y="659.5" width="217.05" height="220.35"/>
  <g>
    <line class="cls-5" x1="519.1" y1="771.57" x2="703.01" y2="771.57"/>
    <path d="M714.64,771.57c-5.47,2.03-12.26,5.49-16.47,9.16l3.31-9.16-3.31-9.16c4.21,3.67,11,7.13,16.47,9.16Z"/>
  </g>
  <polyline class="cls-7" points="523 874.43 639.11 874.43 639.11 771.57 639.11 667.75 523.92 667.75"/>
  <text class="cls-21" transform="translate(779.17 784.73) scale(.99 1)"><tspan class="cls-51" x="0" y="0">T</tspan><tspan class="cls-40" x="15.79" y="0">r</tspan><tspan class="cls-1" x="27.04" y="0">aefik</tspan></text>
  <ellipse class="cls-2" cx="444.73" cy="774.53" rx="80.56" ry="46.03"/>
  <ellipse class="cls-2" cx="444.72" cy="874.6" rx="80.56" ry="46.03"/>
  <text class="cls-22" transform="translate(391.66 782.2) scale(.99 1)"><tspan x="0" y="0">api.</tspan><tspan class="cls-18" x="26.06" y="0">c</tspan><tspan x="33.78" y="0">o</tspan><tspan class="cls-16" x="43.37" y="0">n</tspan><tspan x="52.99" y="0">trud</tspan><tspan class="cls-39" x="83.96" y="0">e</tspan><tspan x="92.5" y="0">.eu</tspan></text>
  <text class="cls-22" transform="translate(381.71 878.79) scale(.99 1)"><tspan x="0" y="0">mqt</tspan><tspan class="cls-54" x="30.18" y="0">t</tspan><tspan x="35.91" y="0">.</tspan><tspan class="cls-18" x="39.53" y="0">c</tspan><tspan x="47.25" y="0">o</tspan><tspan class="cls-16" x="56.84" y="0">n</tspan><tspan class="cls-43" x="66.46" y="0">trud</tspan><tspan class="cls-39" x="97.43" y="0">e</tspan><tspan x="105.97" y="0">.eu</tspan></text>
  <ellipse class="cls-17" cx="1206.22" cy="739.11" rx="63.11" ry="38.81"/>
  <text class="cls-22" transform="translate(1184.2 748.37) scale(.99 1)"><tspan x="0" y="0">M</tspan><tspan class="cls-53" x="14.04" y="0">Q</tspan><tspan class="cls-47" x="25.64" y="0">T</tspan><tspan x="34.98" y="0">T</tspan></text>
  <ellipse class="cls-17" cx="1206.11" cy="850.11" rx="63.11" ry="38.81"/>
  <text class="cls-22" transform="translate(1179.09 857.37) scale(.99 1)"><tspan x="0" y="0">G</tspan><tspan class="cls-40" x="11.28" y="0">r</tspan><tspan x="16.91" y="0">afana</tspan></text>
  <g>
    <ellipse class="cls-33" cx="1207.44" cy="262.56" rx="63.11" ry="38.81"/>
    <text class="cls-22" transform="translate(1191.86 270.07) scale(.99 1)"><tspan x="0" y="0">ship</tspan></text>
  </g>
  <line class="cls-5" x1="1765" y1="834" x2="1765" y2="1025"/>
  <g>
    <line class="cls-5" x1="943.63" y1="773" x2="988" y2="773"/>
    <path d="M932,773c5.47,2.03,12.26,5.49,16.47,9.16l-3.31-9.16,3.31-9.16c-4.21,3.67-11,7.13-16.47,9.16Z"/>
  </g>
  <line class="cls-5" x1="988" y1="773" x2="988" y2="1025"/>
  <line class="cls-5" x1="988" y1="1025" x2="1765" y2="1025"/>
  <line class="cls-5" x1="1143" y1="739" x2="1095" y2="739"/>
  <line class="cls-5" x1="1095" y1="739" x2="1095" y2="1025"/>
  <g>
    <line class="cls-5" x1="1478" y1="741" x2="1441.63" y2="741"/>
    <path d="M1430,741c5.47-2.03,12.26-5.49,16.47-9.16l-3.31,9.16,3.31,9.16c-4.21-3.67-11-7.13-16.47-9.16Z"/>
  </g>
  <line class="cls-5" x1="1478" y1="741" x2="1478" y2="1025"/>
  <line class="cls-5" x1="1206" y1="890" x2="1206" y2="1025"/>
  <line class="cls-5" x1="1366" y1="890" x2="1366" y2="1025"/>
  <g>
    <line class="cls-6" x1="1366.09" y1="784.03" x2="1366.41" y2="806.47"/>
    <path d="M1366,778c-1.01,2.85-2.76,6.4-4.63,8.62l4.73-1.79,4.78,1.65c-1.94-2.16-3.78-5.65-4.88-8.48Z"/>
    <path d="M1366.5,812.5c-1.09-2.82-2.94-6.32-4.88-8.48l4.78,1.65,4.73-1.79c-1.87,2.21-3.62,5.76-4.63,8.62Z"/>
  </g>
  <g>
    <line class="cls-9" x1="490.5" y1="636.5" x2="746.47" y2="349.51"/>
    <path d="M754.5,340.5c-2.21,5.64-4.21,13.29-4.28,19.09l-4.81-8.9-9.39-3.76c5.75-.72,13.12-3.59,18.48-6.43Z"/>
  </g>
  <g>
    <line class="cls-9" x1="1164.02" y1="697.03" x2="886.5" y2="345.5"/>
    <path d="M1171.5,706.5c-1.87-5.76-3.41-13.52-3.13-19.31l-5.33,8.59-9.6,3.19c5.7,1.07,12.88,4.37,18.06,7.52Z"/>
  </g>
  <g>
    <line class="cls-6" x1="1202.5" y1="700.5" x2="1202.5" y2="405.54"/>
    <path d="M1202.5,399.5c1.05,2.84,2.85,6.36,4.76,8.55l-4.76-1.72-4.75,1.72c1.9-2.18,3.7-5.71,4.75-8.55Z"/>
  </g>
  <g>
    <line class="cls-6" x1="1234.5" y1="395.5" x2="1364.12" y2="696.96"/>
    <path d="M1366.5,702.5c-2.09-2.19-5.13-4.72-7.75-5.97l5.05-.3,3.69-3.46c-.89,2.76-1.15,6.71-.99,9.73Z"/>
  </g>
  <g>
    <line class="cls-6" x1="1367.5" y1="399.5" x2="1367.5" y2="696.46"/>
    <path d="M1367.5,702.5c-1.05-2.84-2.85-6.36-4.76-8.55l4.76,1.72,4.75-1.72c-1.9,2.18-3.7,5.71-4.75,8.55Z"/>
  </g>
  <line class="cls-10" x1="1638" y1="264.5" x2="1638" y2="851"/>
  <g>
    <line class="cls-10" x1="1638" y1="851" x2="1436.04" y2="851"/>
    <path class="cls-49" d="M1430,851c2.84-1.05,6.36-2.85,8.55-4.76l-1.72,4.76,1.72,4.75c-2.18-1.9-5.71-3.7-8.55-4.75Z"/>
  </g>
  <g>
    <line class="cls-10" x1="1436.54" y1="264.5" x2="1638.5" y2="264.5"/>
    <path class="cls-49" d="M1430.5,264.5c2.84,1.05,6.36,2.85,8.55,4.76l-1.72-4.76,1.72-4.75c-2.18,1.9-5.71,3.7-8.55,4.75Z"/>
  </g>
  <g>
    <ellipse class="cls-11" cx="304.04" cy="246.16" rx="251.96" ry="160.97"/>
    <text class="cls-21" transform="translate(160.56 168.22) scale(.99 1)"><tspan x="0" y="0">E</tspan><tspan class="cls-57" x="17.19" y="0">n</tspan><tspan x="36.12" y="0">vi</tspan><tspan class="cls-29" x="61.1" y="0">r</tspan><tspan class="cls-43" x="72.17" y="0">onme</tspan><tspan class="cls-16" x="157.37" y="0">n</tspan><tspan class="cls-43" x="176.62" y="0">tal D</tspan><tspan class="cls-16" x="243.93" y="0">a</tspan><tspan x="260.63" y="0">ta</tspan></text>
    <ellipse class="cls-45" cx="125.43" cy="232.78" rx="49.8" ry="30.63"/>
    <ellipse class="cls-45" cx="244.35" cy="232.87" rx="49.8" ry="30.63"/>
    <ellipse class="cls-45" cx="363.14" cy="232.87" rx="49.8" ry="30.63"/>
    <ellipse class="cls-45" cx="185.49" cy="317.68" rx="49.8" ry="30.63"/>
    <ellipse class="cls-45" cx="302.41" cy="317.77" rx="49.8" ry="30.63"/>
    <ellipse class="cls-45" cx="419.2" cy="317.77" rx="49.8" ry="30.63"/>
    <ellipse class="cls-45" cx="482.63" cy="232.52" rx="49.8" ry="30.63"/>
    <text class="cls-23" transform="translate(97.07 237.3)"><tspan class="cls-38" x="0" y="0">A</tspan><tspan x="7.31" y="0">i</tspan><tspan class="cls-15" x="10.12" y="0">r</tspan><tspan x="13.98" y="0">-</tspan><tspan class="cls-34" x="17.66" y="0">P</tspan><tspan class="cls-56" x="23.86" y="0">r</tspan><tspan x="27.66" y="0">essu</tspan><tspan class="cls-55" x="49.79" y="0">r</tspan><tspan x="53.59" y="0">e</tspan></text>
    <text class="cls-23" transform="translate(219.32 237.48)"><tspan x="0" y="0">Humidi</tspan><tspan class="cls-25" x="36.83" y="0">t</tspan><tspan class="cls-46" x="40.91" y="0">y</tspan></text>
    <text class="cls-23" transform="translate(331.74 237.41)"><tspan class="cls-52" x="0" y="0">T</tspan><tspan class="cls-46" x="5.11" y="0">empe</tspan><tspan class="cls-15" x="33.97" y="0">r</tspan><tspan class="cls-32" x="37.84" y="0">a</tspan><tspan x="43.57" y="0">tu</tspan><tspan class="cls-56" x="54.16" y="0">r</tspan><tspan x="57.96" y="0">e</tspan></text>
    <text class="cls-23" transform="translate(462.85 237.19)"><tspan class="cls-34" x="0" y="0">V</tspan><tspan x="6.5" y="0">ib</tspan><tspan class="cls-59" x="16.14" y="0">r</tspan><tspan class="cls-58" x="20" y="0">a</tspan><tspan class="cls-46" x="25.74" y="0">tion</tspan></text>
    <text class="cls-23" transform="translate(163.74 322.52)"><tspan class="cls-50" x="0" y="0">A</tspan><tspan x="7.31" y="0">ltitude</tspan></text>
    <text class="cls-23" transform="translate(281.63 321.41)"><tspan x="0" y="0">L</tspan><tspan class="cls-32" x="5.66" y="0">a</tspan><tspan x="11.4" y="0">titude</tspan></text>
    <text class="cls-23" transform="translate(395.07 321.3)"><tspan class="cls-30" x="0" y="0">L</tspan><tspan x="5.5" y="0">on</tspan><tspan class="cls-13" x="18.74" y="0">g</tspan><tspan class="cls-14" x="25.38" y="0">itude</tspan></text>
  </g>
  <g>
    <line class="cls-9" x1="709.95" y1="275.42" x2="124" y2="276"/>
    <path d="M722.02,275.4c-5.68-2.1-12.73-5.69-17.1-9.49l3.45,9.51-3.43,9.51c4.36-3.81,11.41-7.42,17.09-9.53Z"/>
  </g>
  <line class="cls-9" x1="125" y1="263" x2="125" y2="275"/>
  <line class="cls-9" x1="185" y1="287" x2="185" y2="276"/>
  <line class="cls-9" x1="244" y1="263" x2="244" y2="275"/>
  <line class="cls-9" x1="302" y1="287" x2="302" y2="276"/>
  <line class="cls-9" x1="363" y1="263" x2="363" y2="275"/>
  <line class="cls-9" x1="419" y1="287" x2="419" y2="276"/>
  <line class="cls-9" x1="483" y1="263" x2="483" y2="275"/>
  <g>
    <line class="cls-9" x1="1478" y1="741" x2="1652.93" y2="741"/>
    <path d="M1665,741c-5.68,2.11-12.73,5.7-17.09,9.51l3.44-9.51-3.44-9.51c4.37,3.81,11.42,7.4,17.09,9.51Z"/>
  </g>
  <g>
    <line class="cls-6" x1="1137.46" y1="850.5" x2="1012.5" y2="850.5"/>
    <path d="M1143.5,850.5c-2.84-1.05-6.36-2.85-8.55-4.76l1.72,4.76-1.72,4.75c2.18-1.9,5.71-3.7,8.55-4.75Z"/>
  </g>
  <line class="cls-6" x1="1012.5" y1="850.5" x2="1012.5" y2="282.5"/>
  <line class="cls-6" x1="1012.5" y1="282.5" x2="1046.5" y2="282.5"/>
  <g>
    <line class="cls-6" x1="1276.54" y1="262.5" x2="1287.5" y2="262.5"/>
    <path d="M1270.5,262.5c2.84,1.05,6.36,2.85,8.55,4.76l-1.72-4.76,1.72-4.75c-2.18,1.9-5.71,3.7-8.55,4.75Z"/>
  </g>
  <line class="cls-6" x1="1287.5" y1="262.5" x2="1287.5" y2="518.5"/>
</svg>