<?xml version="1.0" encoding="UTF-8"?>
<svg id="Ebene_2" data-name="Ebene 2" xmlns="http://www.w3.org/2000/svg" viewBox="0 0 200 200">
  <defs>
    <style>
      .cls-1 {
        fill: none;
      }

      .cls-1, .cls-2, .cls-3 {
        stroke-width: 0px;
      }

      .cls-2 {
        fill: #000;
      }

      .cls-3 {
        fill: #fff;
      }
    </style>
  </defs>
  <g id="Ebene_1-2" data-name="Ebene 1">
    <g>
      <g>
        <path class="cls-3" d="M146.6,175.84c-.79,0-1.55-.26-2.26-.78l-44.79-32.54-44.79,32.54c-.71.51-1.47.78-2.26.78-1.23,0-2.47-.65-3.23-1.69-.51-.7-1.01-1.86-.5-3.43l17.11-52.65-44.79-32.54c-2.12-1.54-1.62-3.71-1.41-4.34.2-.63,1.08-2.69,3.7-2.69h55.36l17.11-52.65c.81-2.49,3.03-2.68,3.7-2.68s2.89.19,3.69,2.68l17.11,52.65h55.36c2.62,0,3.49,2.06,3.7,2.68.2.63.71,2.8-1.41,4.34l-44.79,32.54,17.11,52.65c.51,1.57.01,2.73-.5,3.43-.76,1.04-1.99,1.69-3.22,1.69Z"/>
        <path class="cls-2" d="M99.56,26.66c.28,0,.3.07.37.27l16.32,50.23,1.57,4.84h57.9c.2,0,.28,0,.37.27.09.27.02.31-.14.43l-42.73,31.05-4.11,2.99,1.57,4.84,16.32,50.23c.07.2.04.23,0,.29-.11.15-.3.25-.39.25-.02,0-.09-.03-.2-.11l-42.73-31.05-4.11-2.99-4.11,2.99-42.73,31.05c-.11.08-.18.11-.2.11-.09,0-.28-.09-.39-.24-.04-.06-.07-.09,0-.29l16.32-50.23,1.57-4.84-4.11-2.99-42.73-31.05c-.16-.12-.23-.16-.14-.43.09-.27.16-.27.37-.27h57.9l1.57-4.84,16.32-50.23c.06-.19.09-.27.37-.27M99.56,19.66c-2.96,0-5.92,1.7-7.02,5.1l-16.32,50.23H23.39c-7.15,0-10.13,9.16-4.34,13.36l42.73,31.05-16.32,50.23c-1.68,5.18,2.43,9.7,7.05,9.7,1.44,0,2.94-.44,4.32-1.44l42.73-31.05,42.73,31.05c1.38,1,2.87,1.44,4.32,1.44,4.62,0,8.73-4.52,7.05-9.7l-16.32-50.23,42.73-31.05c5.79-4.21,2.81-13.36-4.34-13.36h-52.82l-16.32-50.23c-1.11-3.4-4.06-5.1-7.02-5.1h0Z"/>
      </g>
      <rect class="cls-1" width="200" height="200"/>
    </g>
  </g>
</svg>