<?xml version="1.0" encoding="UTF-8"?>
<svg id="Ebene_2" xmlns="http://www.w3.org/2000/svg" viewBox="0 0 200 200">
  <defs>
    <style>
      .cls-1 {
        stroke-width: .54px;
      }

      .cls-1, .cls-2, .cls-3 {
        stroke: #000;
        stroke-miterlimit: 10;
      }

      .cls-4 {
        fill: none;
      }

      .cls-2 {
        stroke-width: .41px;
      }

      .cls-3 {
        stroke-width: .28px;
      }
    </style>
  </defs>
  <g id="Ebene_1-2" data-name="Ebene_1">
    <g id="Ebene_1-2">
      <path class="cls-1" d="M117.18,80.38h-8.77c-1.12,0-2.09-.78-2.37-1.87-.92-3.67-2.37-7.13-4.27-10.29-.58-.97-.45-2.2.35-3l6.2-6.2c.95-.95.95-2.5,0-3.45l-7.2-7.2c-.95-.95-2.5-.95-3.45,0l-6.24,6.25c-.79.79-2.02.93-2.99.36-3.15-1.87-6.6-3.29-10.25-4.19-1.1-.27-1.88-1.24-1.88-2.37v-9.1c0-1.34-1.09-2.44-2.44-2.44h-10.18c-1.34,0-2.44,1.09-2.44,2.44v9.22c0,1.12-.76,2.08-1.85,2.36-3.65.95-7.1,2.43-10.24,4.36-.97.6-2.22.46-3.02-.34l-6.38-6.38c-.95-.95-2.5-.95-3.45,0l-7.2,7.19c-.95.95-.95,2.5,0,3.45l6.55,6.55c.78.78.93,1.99.38,2.96-1.76,3.03-3.12,6.33-4,9.82-.28,1.09-1.24,1.87-2.37,1.87h-9.25c-1.34,0-2.44,1.09-2.44,2.44v10.17c0,1.35,1.09,2.44,2.44,2.44h9.29c1.12,0,2.09.77,2.37,1.86.9,3.53,2.3,6.86,4.11,9.92.57.97.43,2.2-.36,2.99l-6.58,6.57c-.95.95-.95,2.5,0,3.45l7.2,7.19c.95.95,2.5.95,3.45,0l6.53-6.53c.8-.8,2.03-.93,3-.35,3.07,1.84,6.42,3.26,9.97,4.19,1.08.29,1.85,1.25,1.85,2.37v8.97c0,1.34,1.09,2.44,2.44,2.44h10.18c1.34,0,2.44-1.09,2.44-2.44v-8.85c0-1.13.78-2.1,1.88-2.37,3.54-.87,6.89-2.24,9.97-4.03.96-.56,2.18-.42,2.97.37l6.39,6.4c.95.95,2.5.95,3.45,0l7.2-7.2c.95-.95.95-2.5,0-3.45l-6.23-6.23c-.8-.8-.94-2.05-.35-3.02,1.95-3.19,3.45-6.68,4.4-10.4.28-1.09,1.24-1.85,2.36-1.85h8.81c1.35,0,2.44-1.09,2.44-2.44v-10.17c0-1.35-1.09-2.44-2.44-2.44h.02ZM68.8,106.38c-10.39,0-18.82-8.43-18.82-18.82s8.43-18.82,18.82-18.82,18.82,8.43,18.82,18.82-8.43,18.82-18.82,18.82Z"/>
      <path class="cls-3" d="M172.59,59.29h-4.52c-.58,0-1.08-.4-1.22-.96-.47-1.89-1.22-3.67-2.2-5.3-.3-.5-.23-1.14.18-1.55l3.2-3.19c.49-.49.49-1.29,0-1.78l-3.71-3.71c-.49-.49-1.29-.49-1.78,0l-3.22,3.22c-.41.41-1.04.48-1.54.19-1.62-.96-3.4-1.7-5.28-2.16-.57-.14-.97-.64-.97-1.22v-4.69c0-.69-.56-1.26-1.26-1.26h-5.24c-.69,0-1.26.56-1.26,1.26v4.75c0,.58-.39,1.07-.95,1.22-1.88.49-3.66,1.25-5.28,2.24-.5.31-1.14.24-1.56-.18l-3.29-3.29c-.49-.49-1.29-.49-1.78,0l-3.71,3.71c-.49.49-.49,1.29,0,1.78l3.38,3.38c.4.4.48,1.03.19,1.52-.91,1.56-1.61,3.26-2.06,5.06-.14.56-.64.96-1.22.96h-4.77c-.69,0-1.26.56-1.26,1.26v5.24c0,.7.56,1.26,1.26,1.26h4.79c.58,0,1.08.4,1.22.96.47,1.82,1.18,3.54,2.12,5.11.29.5.22,1.13-.19,1.54l-3.39,3.39c-.49.49-.49,1.29,0,1.78l3.71,3.71c.49.49,1.29.49,1.78,0l3.36-3.36c.41-.41,1.05-.48,1.55-.18,1.58.95,3.31,1.68,5.14,2.16.56.15.95.64.95,1.22v4.62c0,.69.56,1.26,1.26,1.26h5.24c.69,0,1.26-.56,1.26-1.26v-4.56c0-.58.4-1.08.97-1.22,1.83-.45,3.55-1.16,5.13-2.08.5-.29,1.12-.21,1.53.19l3.29,3.3c.49.49,1.29.49,1.78,0l3.71-3.71c.49-.49.49-1.29,0-1.78l-3.21-3.21c-.41-.41-.48-1.05-.18-1.56,1.01-1.64,1.78-3.44,2.27-5.36.14-.56.64-.95,1.22-.95h4.54c.7,0,1.26-.56,1.26-1.26v-5.24c0-.7-.56-1.26-1.26-1.26h.02ZM147.66,72.69c-5.35,0-9.7-4.34-9.7-9.7s4.34-9.7,9.7-9.7,9.7,4.34,9.7,9.7-4.34,9.7-9.7,9.7Z"/>
      <path class="cls-2" d="M180.55,128.17h-6.72c-.86,0-1.61-.6-1.82-1.43-.7-2.82-1.82-5.47-3.27-7.9-.45-.74-.34-1.69.27-2.3l4.76-4.75c.73-.73.73-1.92,0-2.65l-5.52-5.52c-.73-.73-1.92-.73-2.65,0l-4.79,4.79c-.61.61-1.55.72-2.29.28-2.42-1.43-5.06-2.53-7.86-3.21-.84-.21-1.44-.95-1.44-1.82v-6.98c0-1.03-.84-1.87-1.87-1.87h-7.81c-1.03,0-1.87.84-1.87,1.87v7.07c0,.86-.59,1.6-1.42,1.81-2.8.73-5.45,1.87-7.86,3.34-.74.46-1.7.35-2.32-.26l-4.9-4.9c-.73-.73-1.92-.73-2.65,0l-5.52,5.52c-.73.73-.73,1.92,0,2.65l5.03,5.03c.6.6.72,1.53.29,2.27-1.35,2.33-2.39,4.85-3.07,7.53-.21.84-.95,1.44-1.82,1.44h-7.1c-1.03,0-1.87.84-1.87,1.87v7.8c0,1.04.84,1.87,1.87,1.87h7.13c.86,0,1.6.59,1.82,1.42.69,2.71,1.76,5.27,3.16,7.61.44.74.33,1.69-.28,2.29l-5.05,5.04c-.73.73-.73,1.92,0,2.65l5.52,5.52c.73.73,1.92.73,2.65,0l5.01-5.01c.61-.61,1.56-.72,2.3-.27,2.36,1.41,4.92,2.5,7.65,3.21.83.22,1.42.96,1.42,1.82v6.88c0,1.03.84,1.87,1.87,1.87h7.81c1.03,0,1.87-.84,1.87-1.87v-6.79c0-.87.6-1.61,1.44-1.82,2.72-.67,5.29-1.72,7.64-3.09.74-.43,1.67-.32,2.28.28l4.9,4.91c.73.73,1.92.73,2.65,0l5.52-5.52c.73-.73.73-1.92,0-2.65l-4.78-4.78c-.62-.62-.72-1.57-.27-2.32,1.5-2.44,2.64-5.13,3.38-7.98.21-.84.95-1.42,1.81-1.42h6.76c1.04,0,1.87-.84,1.87-1.87v-7.8c0-1.04-.84-1.87-1.87-1.87h.01ZM143.44,148.11c-7.97,0-14.44-6.46-14.44-14.44s6.46-14.44,14.44-14.44,14.44,6.46,14.44,14.44-6.46,14.44-14.44,14.44Z"/>
      <rect class="cls-4" width="200" height="200"/>
    </g>
  </g>
</svg>