<?xml version="1.0" encoding="UTF-8"?>
<svg id="Ebene_2" xmlns="http://www.w3.org/2000/svg" viewBox="0 0 200 200">
  <defs>
    <style>
      .cls-1 {
        fill: #fff;
      }

      .cls-2, .cls-3 {
        fill: none;
      }

      .cls-3 {
        stroke: #000;
        stroke-linecap: round;
        stroke-miterlimit: 10;
        stroke-width: 7.17px;
      }
    </style>
  </defs>
  <g id="Ebene_1-2" data-name="Ebene_1">
    <g>
      <g>
        <path class="cls-1" d="M121,133.92c-31.94,0-57.92-25.98-57.92-57.92s25.98-57.92,57.92-57.92,57.92,25.98,57.92,57.92-25.98,57.92-57.92,57.92Z"/>
        <path d="M121,21.67c29.96,0,54.33,24.37,54.33,54.33s-24.37,54.33-54.33,54.33-54.33-24.37-54.33-54.33,24.37-54.33,54.33-54.33M121,14.5c-33.97,0-61.5,27.53-61.5,61.5s27.53,61.5,61.5,61.5,61.5-27.53,61.5-61.5-27.53-61.5-61.5-61.5h0Z"/>
      </g>
      <line class="cls-3" x1="75" y1="117" x2="7.5" y2="184.5"/>
      <g>
        <line class="cls-3" x1="118.87" y1="46.25" x2="118.87" y2="80.25"/>
        <line class="cls-3" x1="105.5" y1="67.5" x2="139.5" y2="67.5"/>
      </g>
      <line class="cls-3" x1="105.5" y1="100.5" x2="139.5" y2="100.5"/>
      <rect class="cls-2" width="200" height="200"/>
    </g>
  </g>
</svg>